<svg width="15" height="15" viewBox="0 0 15 15" fill="none" xmlns="http://www.w3.org/2000/svg">
<path d="M7.98238 13.3333C11.204 13.3333 13.8157 10.7217 13.8157 7.5C13.8157 4.27834 11.204 1.66667 7.98238 1.66667C4.76072 1.66667 2.14905 4.27834 2.14905 7.5C2.14905 10.7217 4.76072 13.3333 7.98238 13.3333Z" stroke="#5C5C5C" stroke-width="0.875"/>
<path d="M5.35742 10.4167C6.71758 8.99205 9.23262 8.92497 10.6074 10.4167M9.4379 6.04167C9.4379 6.84707 8.78404 7.5 7.97746 7.5C7.17095 7.5 6.51707 6.84707 6.51707 6.04167C6.51707 5.23625 7.17095 4.58333 7.97746 4.58333C8.78404 4.58333 9.4379 5.23625 9.4379 6.04167Z" stroke="#5C5C5C" stroke-width="0.875" stroke-linecap="round"/>
</svg>
