<svg width="15" height="15" viewBox="0 0 15 15" fill="none" xmlns="http://www.w3.org/2000/svg">
<g clip-path="url(#clip0_1_407)">
<path d="M13.1642 8H4.98425L3.98425 3H13.9842C14.0574 3.00027 14.1295 3.01657 14.1957 3.04777C14.2618 3.07896 14.3203 3.12429 14.367 3.18055C14.4138 3.2368 14.4476 3.30263 14.4661 3.37337C14.4846 3.44412 14.4874 3.51806 14.4742 3.59L13.6542 7.59C13.6351 7.70565 13.5751 7.81062 13.4852 7.88584C13.3953 7.96107 13.2814 8.00157 13.1642 8Z" stroke="#5C5C5C" stroke-linecap="round" stroke-linejoin="round"/>
<path d="M3.98425 3L3.56425 1.4C3.5412 1.28706 3.47983 1.18556 3.39054 1.11267C3.30125 1.03978 3.18952 0.999976 3.07425 1H1.48425" stroke="#5C5C5C" stroke-linecap="round" stroke-linejoin="round"/>
<path d="M4.98425 8L5.40425 10.1C5.4273 10.2129 5.48867 10.3144 5.57796 10.3873C5.66725 10.4602 5.77899 10.5 5.89425 10.5H11.9842" stroke="#5C5C5C" stroke-linecap="round" stroke-linejoin="round"/>
<path d="M11.4843 14C11.2082 14 10.9843 13.7761 10.9843 13.5C10.9843 13.2239 11.2082 13 11.4843 13C11.7605 13 11.9843 13.2239 11.9843 13.5C11.9843 13.7761 11.7605 14 11.4843 14Z" stroke="#5C5C5C" stroke-linecap="round" stroke-linejoin="round"/>
<path d="M6.48425 14C6.20811 14 5.98425 13.7761 5.98425 13.5C5.98425 13.2239 6.20811 13 6.48425 13C6.76039 13 6.98425 13.2239 6.98425 13.5C6.98425 13.7761 6.76039 14 6.48425 14Z" stroke="#5C5C5C" stroke-linecap="round" stroke-linejoin="round"/>
</g>
<defs>
<clipPath id="clip0_1_407">
<rect width="14" height="14" fill="white" transform="translate(0.982422 0.5)"/>
</clipPath>
</defs>
</svg>
