<svg width="25" height="24" viewBox="0 0 25 24" fill="none" xmlns="http://www.w3.org/2000/svg">
<path d="M24.8002 12C24.8002 5.3726 19.4276 1.52588e-05 12.8002 1.52588e-05C6.17276 1.52588e-05 0.800171 5.3726 0.800171 12C0.800171 17.6278 4.67449 22.3499 9.90125 23.6466V15.667H7.42676V12H9.90125V10.4199C9.90125 6.33548 11.7496 4.44236 15.7596 4.44236C16.5198 4.44236 17.8316 4.5914 18.3682 4.74049V8.06468C18.085 8.03487 17.5931 8.01995 16.9819 8.01995C15.0142 8.01995 14.2539 8.76529 14.2539 10.7031V12H18.1736L17.5002 15.667H14.2539V23.9121C20.1957 23.1945 24.8002 18.1353 24.8002 12Z" fill="black"/>
</svg>
