<svg width="22" height="22" viewBox="0 0 22 22" fill="none" xmlns="http://www.w3.org/2000/svg">
<path fill-rule="evenodd" clip-rule="evenodd" d="M10.8001 0.466309C4.83252 0.466309 0.000123847 5.29991 0.000123847 11.2663C-0.00117658 13.5335 0.711513 15.7435 2.03707 17.5828C3.36263 19.4221 5.23374 20.7972 7.38492 21.5131C7.92492 21.6079 8.12772 21.2839 8.12772 20.9995C8.12772 20.7439 8.11332 19.8931 8.11332 18.9883C5.40012 19.4875 4.69812 18.3271 4.48212 17.7199C4.36092 17.4079 3.83412 16.4503 3.37452 16.1935C2.99772 15.9919 2.45772 15.4915 3.36252 15.4783C4.21212 15.4651 4.81932 16.2607 5.02212 16.5859C5.99412 18.2179 7.54692 17.7595 8.16732 17.4763C8.26212 16.7743 8.54532 16.3015 8.85612 16.0315C6.45252 15.7615 3.94212 14.8303 3.94212 10.6999C3.94212 9.52391 4.36092 8.55191 5.04852 7.79591C4.94052 7.52711 4.56372 6.41951 5.15652 4.93511C5.15652 4.93511 6.06132 4.65191 8.12772 6.04151C9.00698 5.79797 9.91537 5.67564 10.8277 5.67791C11.7445 5.67791 12.6637 5.79791 13.5277 6.04151C15.5917 4.63751 16.4977 4.93511 16.4977 4.93511C17.0917 6.41951 16.7137 7.52711 16.6057 7.79711C17.2933 8.55311 17.7121 9.51191 17.7121 10.6999C17.7121 14.8435 15.1873 15.7615 12.7849 16.0315C13.1761 16.3699 13.5133 17.0179 13.5133 18.0295C13.5133 19.4743 13.5001 20.6347 13.5001 20.9995C13.5001 21.2839 13.7029 21.6211 14.2429 21.5131C16.387 20.7893 18.25 19.4114 19.5699 17.5732C20.8897 15.735 21.5997 13.5292 21.6001 11.2663C21.6001 5.29991 16.7677 0.466309 10.8001 0.466309Z" fill="black"/>
</svg>
