<svg width="25" height="24" viewBox="0 0 25 24" fill="none" xmlns="http://www.w3.org/2000/svg">
<path d="M19.1954 7.02212C18.4007 7.02368 17.7545 6.3802 17.7529 5.58548C17.7514 4.79076 18.3948 4.14457 19.1899 4.14302C19.985 4.14146 20.6312 4.78531 20.6328 5.58004C20.6339 6.37476 19.9905 7.02057 19.1954 7.02212Z" fill="black"/>
<path fill-rule="evenodd" clip-rule="evenodd" d="M12.8116 18.161C9.40926 18.1676 6.64527 15.4149 6.63867 12.0117C6.63205 8.60923 9.38553 5.84481 12.7879 5.8382C16.1911 5.83159 18.9555 8.5859 18.9621 11.9879C18.9687 15.3912 16.2144 18.1544 12.8116 18.161ZM12.7922 8.00035C10.5838 8.00424 8.79611 9.79858 8.8 12.0074C8.80427 14.2166 10.599 16.0039 12.8074 15.9996C15.0165 15.9954 16.8043 14.2014 16.8 11.9922C16.7957 9.78302 15.001 7.99608 12.7922 8.00035Z" fill="black"/>
<path fill-rule="evenodd" clip-rule="evenodd" d="M4.91937 0.646479C5.68143 0.347876 6.55351 0.143362 7.83033 0.0830982C9.11028 0.0216726 9.5189 0.00767102 12.777 0.00145262C16.036 -0.00476578 16.4446 0.00766862 17.7245 0.0644334C19.0017 0.119643 19.8742 0.321049 20.6378 0.616544C21.4279 0.920974 22.0982 1.33078 22.7661 1.99603C23.4341 2.66205 23.8454 3.33002 24.1537 4.1189C24.452 4.88174 24.6565 5.75306 24.7171 7.03068C24.7778 8.31023 24.7925 8.71847 24.7988 11.9771C24.805 15.2353 24.7918 15.6443 24.7358 16.925C24.6802 18.2014 24.4792 19.0743 24.1837 19.8375C23.8785 20.6276 23.4694 21.2979 22.8042 21.9659C22.139 22.6342 21.4702 23.0452 20.6814 23.3539C19.9185 23.6517 19.0472 23.8562 17.7704 23.9173C16.4905 23.9779 16.0819 23.9923 12.8225 23.9985C9.56476 24.0048 9.15615 23.9923 7.87622 23.9359C6.59899 23.88 5.72614 23.6789 4.96292 23.3838C4.17289 23.0782 3.50259 22.6696 2.83463 22.004C2.16628 21.3383 1.75456 20.67 1.44663 19.8811C1.14803 19.1186 0.944278 18.2469 0.883244 16.9705C0.822207 15.6901 0.807826 15.2811 0.80161 12.0229C0.79537 8.76435 0.808208 8.35611 0.864188 7.07616C0.920571 5.79855 1.12081 4.92606 1.4163 4.16206C1.7215 3.37239 2.13052 2.70248 2.79654 2.03413C3.46177 1.36616 4.1305 0.954017 4.91937 0.646479ZM5.74171 21.3679C6.16511 21.5308 6.8004 21.7252 7.97031 21.7761C9.23624 21.8309 9.61531 21.843 12.8186 21.8368C16.0231 21.8309 16.4022 21.8173 17.6678 21.7579C18.8365 21.7022 19.4718 21.5055 19.894 21.3407C20.4543 21.1218 20.8532 20.8601 21.2723 20.4406C21.6915 20.0195 21.9508 19.6194 22.1677 19.0591C22.331 18.6354 22.5251 17.9996 22.576 16.8297C22.6316 15.5646 22.6432 15.1851 22.637 11.9809C22.6312 8.77757 22.6176 8.3981 22.5573 7.13254C22.5021 5.96339 22.3058 5.32808 22.1405 4.90623C21.9216 4.34519 21.6607 3.94705 21.2401 3.52753C20.8194 3.10801 20.4193 2.84945 19.8583 2.6325C19.4356 2.46881 18.7996 2.27518 17.6305 2.22426C16.3645 2.16865 15.985 2.15737 12.7809 2.1636C9.5776 2.16982 9.19853 2.18264 7.93298 2.24253C6.76347 2.29812 6.12894 2.49447 5.70592 2.65972C5.14604 2.87861 4.74714 3.13872 4.32763 3.5598C3.90888 3.98087 3.64955 4.38018 3.43261 4.94161C3.2701 5.36464 3.07452 6.00072 3.02437 7.16987C2.96915 8.43581 2.9575 8.81529 2.96372 12.0187C2.96956 15.2228 2.98315 15.6023 3.04265 16.8671C3.09746 18.037 3.29535 18.6715 3.45983 19.0949C3.67872 19.6544 3.93961 20.0533 4.3599 20.4729C4.78098 20.8908 5.18105 21.1509 5.74171 21.3679Z" fill="black"/>
</svg>
