<svg width="618" height="323" viewBox="0 0 618 323" fill="none" xmlns="http://www.w3.org/2000/svg">
<path d="M460.204 627.8L19.2357 581.553C10.8627 574.246 5.47694 564.109 4.10829 553.08C2.73963 542.052 5.48414 530.906 11.817 521.773C14.2273 518.064 17.5631 515.047 21.4954 513.021C17.5391 503.205 17.1923 492.304 20.5168 482.257C23.8286 472.814 32.5322 467.091 41.3618 462.673C38.9532 426.586 49.7038 390.848 71.6226 362.079C93.3763 333.831 126.088 317.419 160.797 311.401C160.612 298.311 163.181 285.329 168.338 273.297C173.495 261.264 181.124 250.451 190.731 241.557C200.337 232.664 211.706 225.891 224.1 221.676C236.494 217.461 249.636 215.899 262.672 217.091C264.603 208.016 268.484 199.469 274.047 192.042C279.61 184.616 286.721 178.488 294.887 174.084C302.922 169.768 311.822 167.31 320.933 166.89C330.043 166.469 339.132 168.098 347.529 171.654C349.554 165.296 353 159.483 357.604 154.653C362.209 149.824 367.852 146.106 374.106 143.78C380.35 141.598 387.017 140.901 393.578 141.745C400.139 142.589 406.412 144.95 411.901 148.642C430.148 145.475 448.652 156.986 454.921 174.682C461.191 192.379 453.474 214.172 437.469 223.728C451.597 250.44 446.762 289.443 426.439 311.775C435.954 315.444 438.727 329.927 439.107 340.304C440.182 370.463 431.953 400.223 415.537 425.546C433.694 426.574 449.763 441.882 458.976 457.828C463.528 465.91 466.097 474.958 466.469 484.227C466.841 493.496 465.006 502.72 461.115 511.141C471.668 511.591 479.702 520.821 483.883 530.656C486.941 538.778 488.545 547.375 488.622 556.054C488.945 556.954 489.163 557.888 489.271 558.838C492.297 584.079 480.579 612.482 460.204 627.8Z" fill="#407BFF"/>
<g opacity="0.6">
<path d="M460.204 627.8L19.2357 581.553C10.8627 574.246 5.47694 564.109 4.10829 553.08C2.73963 542.052 5.48414 530.906 11.817 521.773C14.2273 518.064 17.5631 515.047 21.4954 513.021C17.5391 503.205 17.1923 492.304 20.5168 482.257C23.8286 472.814 32.5322 467.091 41.3618 462.673C38.9532 426.586 49.7038 390.848 71.6226 362.079C93.3763 333.831 126.088 317.419 160.797 311.401C160.612 298.311 163.181 285.329 168.338 273.297C173.495 261.264 181.124 250.451 190.731 241.557C200.337 232.664 211.706 225.891 224.1 221.676C236.494 217.461 249.636 215.899 262.672 217.091C264.603 208.016 268.484 199.469 274.047 192.042C279.61 184.616 286.721 178.488 294.887 174.084C302.922 169.768 311.822 167.31 320.933 166.89C330.043 166.469 339.132 168.098 347.529 171.654C349.554 165.296 353 159.483 357.604 154.653C362.209 149.824 367.852 146.106 374.106 143.78C380.35 141.598 387.017 140.901 393.578 141.745C400.139 142.589 406.412 144.95 411.901 148.642C430.148 145.475 448.652 156.986 454.921 174.682C461.191 192.379 453.474 214.172 437.469 223.728C451.597 250.44 446.762 289.443 426.439 311.775C435.954 315.444 438.727 329.927 439.107 340.304C440.182 370.463 431.953 400.223 415.537 425.546C433.694 426.574 449.763 441.882 458.976 457.828C463.528 465.91 466.097 474.958 466.469 484.227C466.841 493.496 465.006 502.72 461.115 511.141C471.668 511.591 479.702 520.821 483.883 530.656C486.941 538.778 488.545 547.375 488.622 556.054C488.945 556.954 489.163 557.888 489.271 558.838C492.297 584.079 480.579 612.482 460.204 627.8Z" fill="white"/>
</g>
<path d="M407.397 111.398L545.997 103.573C546.482 103.551 546.964 103.658 547.395 103.882C547.825 104.106 548.189 104.439 548.451 104.848C548.712 105.257 548.86 105.727 548.882 106.212C548.904 106.697 548.798 107.179 548.574 107.61L483.315 230.135C483.094 230.562 482.763 230.922 482.357 231.179C481.951 231.437 481.485 231.582 481.004 231.601C480.524 231.619 480.048 231.51 479.623 231.285C479.198 231.06 478.841 230.726 478.587 230.318L405.203 115.613C404.944 115.207 404.797 114.74 404.776 114.259C404.755 113.778 404.861 113.3 405.083 112.872C405.306 112.445 405.637 112.084 406.043 111.825C406.449 111.566 406.916 111.419 407.397 111.398Z" fill="#407BFF"/>
<path opacity="0.2" d="M407.397 111.398L545.997 103.573C546.482 103.551 546.964 103.658 547.395 103.882C547.825 104.106 548.189 104.439 548.451 104.848C548.712 105.257 548.86 105.727 548.882 106.212C548.904 106.697 548.798 107.179 548.574 107.61L483.315 230.135C483.094 230.562 482.763 230.922 482.357 231.179C481.951 231.437 481.485 231.582 481.004 231.601C480.524 231.619 480.048 231.51 479.623 231.285C479.198 231.06 478.841 230.726 478.587 230.318L405.203 115.613C404.944 115.207 404.797 114.74 404.776 114.259C404.755 113.778 404.861 113.3 405.083 112.872C405.306 112.445 405.637 112.084 406.043 111.825C406.449 111.566 406.916 111.419 407.397 111.398Z" fill="black"/>
<path d="M411.71 164.04L421.353 153.948L414.939 143.901L401.718 148.428C402.272 151.561 403.44 154.552 405.155 157.232C406.87 159.911 409.097 162.225 411.71 164.04Z" fill="#263238"/>
<path opacity="0.2" d="M414.939 143.901L411.828 144.955C413.124 149.353 415.643 153.293 419.09 156.317L421.353 153.948L414.939 143.901Z" fill="black"/>
<path opacity="0.4" d="M408.511 146.096L406.033 146.953C407.517 152.333 410.594 157.137 414.86 160.735L416.657 158.843C413.143 155.161 410.376 150.832 408.511 146.096Z" fill="black"/>
<path d="M425.729 159.006C422.184 156.553 419.159 153.422 416.83 149.795C414.5 146.168 412.911 142.115 412.155 137.871L497.066 83.57C501.816 80.52 507.123 78.4408 512.681 77.4525C518.239 76.4641 523.938 76.5861 529.448 77.8115C528.248 83.325 525.967 88.546 522.738 93.1731C519.509 97.8002 515.394 101.742 510.633 104.77L425.729 159.006Z" fill="#407BFF"/>
<path d="M497.072 83.505L417.042 134.704C419.061 143.069 423.835 150.512 430.595 155.837L510.647 104.64C515.408 101.612 519.522 97.6702 522.752 93.0431C525.981 88.4161 528.262 83.195 529.462 77.6815C523.946 76.4647 518.244 76.3528 512.684 77.3524C507.125 78.3519 501.819 80.443 497.072 83.505Z" fill="#407BFF"/>
<path opacity="0.5" d="M497.072 83.505L417.042 134.704C419.061 143.069 423.835 150.512 430.595 155.837L510.647 104.64C515.408 101.612 519.522 97.6702 522.752 93.0431C525.981 88.4161 528.262 83.195 529.462 77.6815C523.946 76.4647 518.244 76.3528 512.684 77.3524C507.125 78.3519 501.819 80.443 497.072 83.505Z" fill="black"/>
<path d="M497.072 83.505L493.409 85.8584C495.867 94.0286 500.562 101.348 506.962 106.991L510.647 104.64C515.408 101.612 519.522 97.6702 522.751 93.0432C525.981 88.4161 528.262 83.195 529.462 77.6815C523.946 76.4647 518.244 76.3528 512.684 77.3524C507.125 78.3519 501.819 80.4431 497.072 83.505Z" fill="#407BFF"/>
<path opacity="0.2" d="M497.072 83.505L493.409 85.8584C495.867 94.0286 500.562 101.348 506.962 106.991L510.647 104.64C515.408 101.612 519.522 97.6702 522.751 93.0432C525.981 88.4161 528.262 83.195 529.462 77.6815C523.946 76.4647 518.244 76.3528 512.684 77.3524C507.125 78.3519 501.819 80.4431 497.072 83.505Z" fill="black"/>
<path d="M447.82 216.71L457.466 206.596L451.049 196.572L437.849 201.101C438.399 204.232 439.563 207.223 441.274 209.902C442.986 212.581 445.21 214.895 447.82 216.71Z" fill="#263238"/>
<path opacity="0.2" d="M451.049 196.572L447.96 197.627C449.247 202.024 451.768 205.96 455.224 208.967L457.466 206.596L451.049 196.572Z" fill="black"/>
<path opacity="0.4" d="M444.642 198.769L442.167 199.604C443.635 204.991 446.704 209.804 450.97 213.405L452.8 211.407C449.287 207.763 446.516 203.471 444.642 198.769Z" fill="black"/>
<path d="M461.86 211.678C454.713 206.712 449.83 199.11 448.286 190.544L533.197 136.243C537.949 133.194 543.256 131.114 548.813 130.122C554.371 129.13 560.069 129.246 565.582 130.462C564.371 135.975 562.086 141.195 558.857 145.824C555.628 150.453 551.519 154.401 546.765 157.442L461.86 211.678Z" fill="#407BFF"/>
<path d="M533.204 136.178L453.154 187.353C455.184 195.72 459.964 203.163 466.729 208.488L546.778 157.312C551.533 154.271 555.642 150.323 558.87 145.694C562.099 141.065 564.384 135.845 565.596 130.332C560.078 129.124 554.375 129.019 548.817 130.022C543.258 131.025 537.952 133.117 533.204 136.178Z" fill="#407BFF"/>
<path opacity="0.5" d="M533.204 136.178L453.154 187.353C455.184 195.72 459.964 203.163 466.729 208.488L546.778 157.312C551.533 154.271 555.642 150.323 558.87 145.694C562.099 141.065 564.384 135.845 565.596 130.332C560.078 129.124 554.375 129.019 548.817 130.022C543.258 131.025 537.952 133.117 533.204 136.178Z" fill="black"/>
<path d="M533.204 136.178L529.543 138.509C532.001 146.679 536.696 153.999 543.096 159.642L546.781 157.29C551.535 154.249 555.644 150.301 558.873 145.672C562.101 141.043 564.387 135.823 565.598 130.311C560.078 129.106 554.375 129.004 548.815 130.01C543.256 131.017 537.951 133.113 533.204 136.178Z" fill="#407BFF"/>
<path opacity="0.2" d="M533.204 136.178L529.543 138.509C532.001 146.679 536.696 153.999 543.096 159.642L546.781 157.29C551.535 154.249 555.644 150.301 558.873 145.672C562.101 141.043 564.387 135.823 565.598 130.311C560.078 129.106 554.375 129.004 548.815 130.01C543.256 131.017 537.951 133.113 533.204 136.178Z" fill="black"/>
<path d="M427.541 198.53L443.133 182.25L432.767 166.03L411.435 173.341C412.323 178.395 414.204 183.223 416.968 187.547C419.733 191.87 423.326 195.603 427.541 198.53Z" fill="#263238"/>
<path opacity="0.2" d="M432.767 166.03L427.774 167.696C429.853 174.789 433.913 181.141 439.476 186.006L443.138 182.207L432.767 166.03Z" fill="black"/>
<path opacity="0.4" d="M422.407 169.586L418.387 170.96C420.778 179.647 425.744 187.407 432.631 193.217L435.559 190.151C429.88 184.216 425.412 177.231 422.407 169.586Z" fill="black"/>
<path d="M450.097 190.405C444.375 186.422 439.497 181.348 435.742 175.475C431.987 169.601 429.429 163.044 428.215 156.179L565.289 68.5173C572.96 63.6026 581.526 60.251 590.496 58.6548C599.465 57.0586 608.661 57.2493 617.557 59.2157C615.614 68.1145 611.931 76.5414 606.72 84.0119C601.509 91.4824 594.872 97.8492 587.192 102.746L450.097 190.405Z" fill="#407BFF"/>
<path d="M565.376 68.5264L436.252 151.174C439.462 164.717 447.138 176.786 458.042 185.435L587.274 102.799C594.954 97.9017 601.591 91.5349 606.802 84.0644C612.013 76.5939 615.696 68.167 617.639 59.2682C608.747 57.296 599.553 57.0986 590.585 58.6874C581.616 60.2761 573.049 63.6197 565.376 68.5264Z" fill="#407BFF"/>
<path opacity="0.6" d="M565.376 68.5264L436.252 151.174C439.462 164.717 447.138 176.786 458.042 185.435L587.274 102.799C594.954 97.9017 601.591 91.5349 606.802 84.0644C612.013 76.5939 615.696 68.167 617.639 59.2682C608.747 57.296 599.553 57.0986 590.585 58.6874C581.616 60.2761 573.049 63.6197 565.376 68.5264Z" fill="black"/>
<path d="M565.376 68.5264L559.462 72.2865C563.414 85.5163 570.994 97.3736 581.344 106.513L587.279 102.755C594.959 97.8583 601.595 91.4915 606.806 84.021C612.018 76.5505 615.7 68.1236 617.644 59.2248C608.748 57.2584 599.552 57.0677 590.582 58.6639C581.613 60.2601 573.047 63.6117 565.376 68.5264Z" fill="#407BFF"/>
<path opacity="0.2" d="M565.376 68.5264L559.462 72.2865C563.414 85.5163 570.994 97.3736 581.344 106.513L587.279 102.755C594.959 97.8583 601.595 91.4915 606.806 84.021C612.018 76.5505 615.7 68.1236 617.644 59.2248C608.748 57.2584 599.552 57.0677 590.582 58.6639C581.613 60.2601 573.047 63.6117 565.376 68.5264Z" fill="black"/>
<path d="M555.286 113.154C553.314 114.411 551.015 115.055 548.677 115.006C546.34 114.957 544.069 114.216 542.153 112.876C540.236 111.537 538.76 109.66 537.909 107.482C537.059 105.304 536.874 102.923 537.376 100.64C537.878 98.3561 539.046 96.2728 540.732 94.6529C542.418 93.0329 544.546 91.949 546.848 91.538C549.15 91.127 551.521 91.4074 553.664 92.3438C555.806 93.2801 557.623 94.8304 558.885 96.7989C560.574 99.4455 561.144 102.654 560.469 105.721C559.795 108.788 557.93 111.461 555.286 113.154Z" fill="#407BFF"/>
<path d="M538.931 109.555C537.327 107.043 536.731 104.017 537.262 101.084C537.793 98.1514 539.412 95.527 541.795 93.7363C541.529 93.8692 541.273 94.0178 541.025 94.1812C539.716 95.019 538.585 96.1063 537.697 97.3811C536.808 98.6559 536.18 100.093 535.847 101.611C535.513 103.129 535.483 104.697 535.756 106.227C536.029 107.757 536.601 109.218 537.438 110.527C538.276 111.835 539.363 112.966 540.638 113.855C541.913 114.743 543.35 115.372 544.868 115.705C546.386 116.038 547.955 116.069 549.484 115.796C551.014 115.523 552.475 114.951 553.784 114.113L554.495 113.597C551.869 115.009 548.806 115.377 545.92 114.628C543.035 113.878 540.538 112.067 538.931 109.555Z" fill="#407BFF"/>
<path opacity="0.3" d="M538.931 109.555C537.327 107.043 536.731 104.017 537.262 101.084C537.793 98.1514 539.412 95.527 541.795 93.7363C541.529 93.8692 541.273 94.0178 541.025 94.1812C539.716 95.019 538.585 96.1063 537.697 97.3811C536.808 98.6559 536.18 100.093 535.847 101.611C535.513 103.129 535.483 104.697 535.756 106.227C536.029 107.757 536.601 109.218 537.438 110.527C538.276 111.835 539.363 112.966 540.638 113.855C541.913 114.743 543.35 115.372 544.868 115.705C546.386 116.038 547.955 116.069 549.484 115.796C551.014 115.523 552.475 114.951 553.784 114.113L554.495 113.597C551.869 115.009 548.806 115.377 545.92 114.628C543.035 113.878 540.538 112.067 538.931 109.555Z" fill="black"/>
<path d="M553.404 110.219C552.01 111.111 550.382 111.57 548.728 111.537C547.073 111.503 545.465 110.98 544.108 110.033C542.751 109.086 541.705 107.757 541.103 106.215C540.501 104.674 540.37 102.988 540.727 101.372C541.084 99.7556 541.912 98.2815 543.107 97.1362C544.301 95.9908 545.809 95.2257 547.439 94.9376C549.069 94.6495 550.747 94.8515 552.262 95.5179C553.777 96.1843 555.061 97.2851 555.95 98.6811C556.545 99.6045 556.951 100.637 557.145 101.718C557.339 102.799 557.317 103.908 557.08 104.98C556.843 106.053 556.397 107.068 555.766 107.967C555.135 108.866 554.332 109.632 553.404 110.219Z" fill="black"/>
<path d="M541.664 107.301L557.078 101.493C556.884 100.565 556.532 99.6764 556.04 98.8658L540.673 104.635C540.855 105.572 541.19 106.473 541.664 107.301Z" fill="#407BFF"/>
<path d="M543.714 109.684L557.119 104.651C557.228 104.139 557.283 103.616 557.283 103.092L542.622 108.606C542.954 108.997 543.319 109.358 543.714 109.684Z" fill="#407BFF"/>
<g opacity="0.7">
<path d="M541.664 107.301L557.078 101.493C556.884 100.565 556.532 99.6764 556.04 98.8658L540.673 104.635C540.855 105.572 541.19 106.473 541.664 107.301Z" fill="black"/>
<path d="M543.714 109.684L557.12 104.651C557.228 104.139 557.283 103.616 557.283 103.092L542.622 108.606C542.954 108.997 543.319 109.358 543.714 109.684Z" fill="black"/>
</g>
</svg>
