<svg width="156" height="45" viewBox="0 0 156 45" fill="none" xmlns="http://www.w3.org/2000/svg">
<rect y="11.4232" width="21.9152" height="5.80363" fill="#5C5C5C"/>
<path fill-rule="evenodd" clip-rule="evenodd" d="M13.7632 28.3147V17.2096H7.97974V33.4252H13.7632V31.5197H11.0442C10.8289 31.5197 10.6544 31.3452 10.6544 31.1299C10.6544 30.9147 10.8289 30.7402 11.0442 30.7402H13.7632V30.307H11.0442C10.8289 30.307 10.6544 30.1325 10.6544 29.9172C10.6544 29.702 10.8289 29.5274 11.0442 29.5274H13.7632V29.0943H11.0442C10.8289 29.0943 10.6544 28.9198 10.6544 28.7045C10.6544 28.4893 10.8289 28.3147 11.0442 28.3147H13.7632Z" fill="#5C5C5C"/>
<path d="M6.53986 15.668C7.36402 14.3019 8.23511 13.4514 9.52527 12.661C10.8154 11.8705 12.2522 11.4402 13.7118 11.407L13.7331 21.4883L6.53986 15.668Z" fill="#7D7D7D"/>
<path d="M33.6432 16.6081V20.048H40.3734V24.5049H33.6432V28.3038H41.2708V33H27.7804V11.9118H41.2708V16.6081H33.6432Z" fill="#5C5C5C"/>
<path d="M63.6142 33.2094C61.1614 33.2094 59.1473 32.6311 57.572 31.4745C55.9966 30.2979 55.1491 28.6228 55.0294 26.4492H61.2811C61.3409 27.187 61.5603 27.7255 61.9391 28.0645C62.318 28.4035 62.8066 28.573 63.4049 28.573C63.9433 28.573 64.382 28.4434 64.721 28.1841C65.0799 27.9049 65.2594 27.5261 65.2594 27.0475C65.2594 26.4293 64.9703 25.9507 64.392 25.6117C63.8137 25.2727 62.8764 24.8938 61.5802 24.475C60.2042 24.0163 59.0875 23.5776 58.23 23.1589C57.3925 22.7201 56.6546 22.092 56.0165 21.2744C55.3983 20.4368 55.0892 19.35 55.0892 18.0139C55.0892 16.6579 55.4282 15.5013 56.1063 14.5441C56.7843 13.567 57.7215 12.8292 58.918 12.3306C60.1145 11.8321 61.4705 11.5828 62.9861 11.5828C65.4389 11.5828 67.3932 12.1611 68.8489 13.3177C70.3246 14.4544 71.1123 16.0597 71.212 18.1336H64.8406C64.8207 17.4955 64.6213 17.0169 64.2424 16.6978C63.8834 16.3787 63.4148 16.2192 62.8365 16.2192C62.3978 16.2192 62.0389 16.3488 61.7597 16.6081C61.4805 16.8673 61.3409 17.2362 61.3409 17.7148C61.3409 18.1137 61.4905 18.4626 61.7896 18.7618C62.1087 19.0409 62.4975 19.2902 62.9562 19.5096C63.4148 19.709 64.0928 19.9682 64.9902 20.2873C66.3263 20.7459 67.4231 21.2046 68.2806 21.6632C69.158 22.102 69.9058 22.7301 70.524 23.5477C71.1621 24.3454 71.4812 25.3624 71.4812 26.5988C71.4812 27.8551 71.1621 28.9818 70.524 29.9789C69.9058 30.9759 68.9984 31.7636 67.802 32.3419C66.6254 32.9202 65.2295 33.2094 63.6142 33.2094ZM91.2866 11.9118V16.5782H85.6631V33H79.8003V16.5782H74.2366V11.9118H91.2866ZM104.763 33.2094C102.788 33.2094 100.974 32.7507 99.3185 31.8334C97.6634 30.8962 96.3472 29.6099 95.3701 27.9747C94.4129 26.3196 93.9343 24.4551 93.9343 22.3811C93.9343 20.3072 94.4129 18.4527 95.3701 16.8175C96.3472 15.1623 97.6634 13.8761 99.3185 12.9588C100.974 12.0415 102.788 11.5828 104.763 11.5828C106.757 11.5828 108.571 12.0415 110.207 12.9588C111.862 13.8761 113.168 15.1623 114.125 16.8175C115.082 18.4527 115.561 20.3072 115.561 22.3811C115.561 24.4551 115.082 26.3196 114.125 27.9747C113.168 29.6099 111.862 30.8962 110.207 31.8334C108.551 32.7507 106.737 33.2094 104.763 33.2094ZM104.763 27.7654C106.258 27.7654 107.435 27.2768 108.292 26.2996C109.17 25.3225 109.608 24.0163 109.608 22.3811C109.608 20.7061 109.17 19.3899 108.292 18.4327C107.435 17.4556 106.258 16.967 104.763 16.967C103.247 16.967 102.06 17.4556 101.203 18.4327C100.346 19.3899 99.9168 20.7061 99.9168 22.3811C99.9168 24.0363 100.346 25.3524 101.203 26.3296C102.06 27.2868 103.247 27.7654 104.763 27.7654ZM130.072 33L125.884 25.2228H125.256V33H119.393V11.9118H128.636C130.331 11.9118 131.767 12.211 132.943 12.8092C134.12 13.3875 135.007 14.1951 135.605 15.2321C136.204 16.2491 136.503 17.3958 136.503 18.672C136.503 20.1078 136.104 21.3741 135.306 22.4709C134.529 23.5477 133.382 24.3155 131.866 24.7741L136.622 33H130.072ZM125.256 21.2146H128.157C128.955 21.2146 129.553 21.0251 129.952 20.6462C130.351 20.2673 130.55 19.7189 130.55 19.0011C130.55 18.323 130.341 17.7946 129.922 17.4157C129.523 17.0169 128.935 16.8175 128.157 16.8175H125.256V21.2146ZM146.228 16.6081V20.048H152.958V24.5049H146.228V28.3038H153.856V33H140.365V11.9118H153.856V16.6081H146.228Z" fill="#5C5C5C"/>
</svg>
